<?xml version="1.0" encoding="UTF-8"?>
<svg id="_レイヤー_2" data-name="レイヤー 2" xmlns="http://www.w3.org/2000/svg" viewBox="0 0 152.26 22.43">
  <defs>
    <style>
      .cls-1 {
        fill: #fff;
      }
    </style>
  </defs>
  <g id="_レイヤー_1-2" data-name="レイヤー 1">
    <g>
      <g>
        <g>
          <path class="cls-1" d="M69.49,13.08c-2.22.88-4.51,1.62-6.86,2.21-2.36.58-4.79,1-7.24,1.22-2.46.21-4.94.22-7.42-.02-4.94-.46-9.82-2.05-13.95-4.6-1.03-.64-2.02-1.33-2.96-2.07-.48-.37-.91-.73-1.33-1.07-.44-.34-.89-.67-1.35-.99-1.82-1.3-3.79-2.42-5.85-3.29-2.06-.86-4.26-1.44-6.47-1.56-2.22-.12-4.45.23-6.45,1.02-2.02.8-3.82,2.07-5.18,3.64-.68.78-1.25,1.64-1.67,2.54-.43.9-.7,1.85-.73,2.79-.03,1,.1,1.98.42,2.91.33.93.83,1.82,1.5,2.6.67.77,1.53,1.41,2.5,1.83.96.43,2.06.63,3.15.55,1.09-.08,2.17-.45,3.12-1.02.95-.57,1.67-1.46,1.97-2.13.27-.66.61-1.99.33-3,.15.11.3.22.45.34.29,1.07.25,2.59-.23,3.5-.52,1.06-.99,1.58-1.98,2.27-.99.7-1.92,1.03-3.23,1.22-1.29.21-2.95-.1-4.17-.55-1.22-.46-2.31-1.19-3.19-2.06C.9,17.62.03,15.24,0,12.91c-.02-1.22.28-2.39.72-3.48.46-1.1,1.12-2.13,1.87-3.07,1.55-1.87,3.61-3.41,5.97-4.4,2.37-1.02,5.03-1.44,7.63-1.31,2.6.13,5.11.78,7.42,1.72,2.31.94,4.41,2.2,6.36,3.59.49.36.97.71,1.43,1.08.47.38.91.75,1.34,1.09.87.69,1.77,1.33,2.71,1.93,1.89,1.19,3.91,2.2,6.06,2.96,2.15.77,4.41,1.28,6.71,1.61,2.31.32,4.67.4,7.03.31,2.36-.1,4.72-.37,7.05-.8,2.33-.42,4.64-.99,6.91-1.68,1.13-.35,2.26-.71,3.37-1.13,1.11-.4,2.22-.84,3.28-1.32-2.01,1.2-4.17,2.19-6.38,3.08Z"/>
          <path class="cls-1" d="M60.53,14.65c-1.42-.01-2.81-.21-4.09-.65-1.28-.44-2.44-1.12-3.3-2.06-.43-.45-.78-.98-1.06-1.53-.13-.29-.25-.57-.36-.88-.08-.27-.15-.59-.19-.87-.17-1.19.09-2.44.73-3.44.32-.51.72-.96,1.19-1.32.23-.18.49-.35.75-.48.13-.08.27-.14.41-.2l.11-.04.09-.04c.07-.02.14-.05.21-.07,1.09-.35,2.35-.16,3.35.51.49.33.92.78,1.24,1.31.32.52.53,1.12.53,1.74.02.62-.14,1.27-.47,1.85-.33.58-.83,1.08-1.44,1.43.34-.08.68-.22.99-.41.32-.19.61-.43.86-.72.52-.56.85-1.3.97-2.09.05-.39.05-.8-.01-1.2-.02-.1-.03-.2-.06-.3l-.04-.15-.04-.13c-.05-.2-.13-.38-.2-.57-.32-.73-.82-1.4-1.46-1.92-1.25-1.05-3.05-1.46-4.67-1.04-.11.03-.2.06-.3.08l-.15.06-.14.05c-.19.07-.38.15-.56.24-.37.18-.72.39-1.05.64-.66.48-1.21,1.1-1.66,1.79-.43.7-.73,1.46-.89,2.28-.14.8-.16,1.63,0,2.43.07.41.18.79.34,1.18.13.36.31.71.51,1.06.39.68.91,1.3,1.49,1.81,1.17,1.04,2.63,1.65,4.08,1.89.73.13,1.46.16,2.19.12.72-.04,1.42-.15,2.12-.34Z"/>
          <path class="cls-1" d="M60.02,7.89c-.08-1.02-.97-1.77-1.98-1.69-1.01.08-1.77.97-1.68,1.99.08,1.02.97,1.77,1.98,1.69,1.01-.09,1.76-.98,1.68-1.99Z"/>
          <path class="cls-1" d="M37.21,12.86c-1.2-.77-2.46-1.36-3.78-1.69-1.31-.34-2.65-.4-3.89-.08-.61.15-1.19.39-1.74.71-.27.17-.52.34-.77.54-.22.19-.45.41-.64.63-.79.91-1.25,2.09-1.27,3.29-.01.6.08,1.2.27,1.76.09.28.22.56.37.82.07.14.16.26.24.39l.07.09.06.08c.04.05.09.11.13.17.73.89,1.89,1.42,3.09,1.4.59,0,1.19-.14,1.75-.42.56-.26,1.06-.65,1.4-1.17.36-.52.58-1.15.62-1.81.04-.67-.11-1.36-.43-1.99.24.26.45.56.6.89.17.33.27.69.33,1.07.12.75,0,1.56-.33,2.28-.17.35-.4.71-.67,1-.07.08-.13.15-.22.22l-.12.11-.1.08c-.16.15-.31.25-.48.37-.67.43-1.45.72-2.27.81-1.62.19-3.35-.44-4.48-1.68-.07-.08-.14-.15-.2-.23l-.1-.13-.09-.12c-.12-.16-.23-.33-.33-.5-.21-.36-.39-.72-.53-1.11-.28-.76-.42-1.58-.41-2.4.02-.82.19-1.63.49-2.4.32-.75.77-1.45,1.34-2.04.28-.3.58-.56.92-.8.3-.22.66-.43,1.01-.61.7-.36,1.47-.6,2.23-.71,1.55-.23,3.1.06,4.45.65.68.29,1.31.67,1.9,1.1.58.43,1.11.91,1.59,1.45Z"/>
          <path class="cls-1" d="M33.08,18.24c-.63.81-1.79.96-2.58.33-.8-.62-.95-1.78-.32-2.59.62-.81,1.78-.96,2.58-.33.79.62.94,1.79.31,2.58Z"/>
        </g>
        <path class="cls-1" d="M15.56,15.62c0-1.35-1.1-2.44-2.45-2.44s-2.44,1.09-2.44,2.44,1.09,2.45,2.44,2.45,2.45-1.09,2.45-2.45Z"/>
      </g>
      <g>
        <g>
          <path class="cls-1" d="M82.78,13.08c2.22.88,4.51,1.62,6.86,2.21,2.36.58,4.78,1,7.24,1.22,2.46.21,4.95.22,7.42-.02,4.95-.46,9.82-2.05,13.95-4.6,1.02-.64,2.01-1.33,2.96-2.07.48-.37.91-.73,1.34-1.07.44-.34.89-.67,1.35-.99,1.82-1.3,3.79-2.42,5.84-3.29,2.06-.86,4.26-1.44,6.47-1.56,2.23-.12,4.44.23,6.45,1.02,2.02.8,3.82,2.07,5.18,3.64.68.78,1.25,1.64,1.67,2.54.43.9.7,1.85.73,2.79.03,1-.1,1.98-.42,2.91-.33.93-.83,1.82-1.5,2.6-.68.77-1.53,1.41-2.5,1.83-.96.43-2.07.63-3.15.55-1.09-.08-2.17-.45-3.11-1.02-.96-.57-1.68-1.46-1.98-2.13-.27-.66-.61-1.99-.32-3-.15.11-.3.22-.45.34-.29,1.07-.24,2.59.23,3.5.52,1.06.99,1.58,1.98,2.27,1,.7,1.92,1.03,3.23,1.22,1.3.21,2.95-.1,4.17-.55,1.22-.46,2.31-1.19,3.18-2.06,1.76-1.76,2.64-4.15,2.66-6.47.02-1.22-.27-2.39-.72-3.48-.46-1.1-1.11-2.13-1.88-3.07-1.54-1.87-3.61-3.41-5.97-4.4-2.36-1.02-5.03-1.44-7.62-1.31-2.61.13-5.12.78-7.43,1.72-2.3.94-4.41,2.2-6.35,3.59-.49.36-.96.71-1.43,1.08-.48.38-.91.75-1.34,1.09-.87.69-1.77,1.33-2.71,1.93-1.89,1.19-3.92,2.2-6.07,2.96-2.15.77-4.41,1.28-6.71,1.61-2.31.32-4.68.4-7.03.31-2.36-.1-4.72-.37-7.05-.8-2.33-.42-4.64-.99-6.9-1.68-1.14-.35-2.26-.71-3.37-1.13-1.11-.4-2.21-.84-3.28-1.32,2,1.2,4.17,2.19,6.38,3.08Z"/>
          <path class="cls-1" d="M91.73,14.65c1.43-.01,2.81-.21,4.09-.65,1.28-.44,2.44-1.12,3.31-2.06.43-.45.78-.98,1.07-1.53.13-.29.25-.57.36-.88.07-.27.15-.59.19-.87.16-1.19-.09-2.44-.73-3.44-.32-.51-.72-.96-1.19-1.32-.24-.18-.49-.35-.76-.48-.13-.08-.27-.14-.41-.2l-.11-.04-.09-.04c-.07-.02-.14-.05-.21-.07-1.09-.35-2.35-.16-3.35.51-.49.33-.92.78-1.24,1.31-.32.52-.53,1.12-.54,1.74-.02.62.15,1.27.47,1.85.33.58.83,1.08,1.45,1.43-.34-.08-.68-.22-.99-.41-.32-.19-.61-.43-.86-.72-.51-.56-.85-1.3-.97-2.09-.05-.39-.05-.8.01-1.2.02-.1.04-.2.07-.3l.03-.15.04-.13c.05-.2.13-.38.21-.57.32-.73.82-1.4,1.45-1.92,1.26-1.05,3.05-1.46,4.67-1.04.11.03.2.06.3.08l.15.06.14.05c.19.07.38.15.55.24.37.18.72.39,1.05.64.66.48,1.21,1.1,1.66,1.79.43.7.73,1.46.9,2.28.14.8.16,1.63,0,2.43-.08.41-.18.79-.34,1.18-.13.36-.32.71-.51,1.06-.39.68-.91,1.3-1.48,1.81-1.18,1.04-2.63,1.65-4.09,1.89-.72.13-1.47.16-2.19.12-.72-.04-1.43-.15-2.12-.34Z"/>
          <path class="cls-1" d="M92.25,7.89c.08-1.02.97-1.77,1.98-1.69,1.01.08,1.77.97,1.68,1.99-.08,1.02-.97,1.77-1.98,1.69-1.01-.09-1.76-.98-1.68-1.99Z"/>
          <path class="cls-1" d="M115.06,12.86c1.2-.77,2.47-1.36,3.78-1.69,1.31-.34,2.65-.4,3.89-.08.61.15,1.19.39,1.74.71.27.17.52.34.78.54.21.19.45.41.64.63.79.91,1.25,2.09,1.26,3.29.01.6-.08,1.2-.27,1.76-.1.28-.22.56-.37.82-.07.14-.15.26-.24.39l-.07.09-.06.08c-.05.05-.1.11-.14.17-.73.89-1.89,1.42-3.09,1.4-.59,0-1.19-.14-1.75-.42-.56-.26-1.06-.65-1.41-1.17-.35-.52-.57-1.15-.61-1.81-.04-.67.11-1.36.42-1.99-.24.26-.44.56-.6.89-.16.33-.27.69-.33,1.07-.13.75,0,1.56.33,2.28.17.35.39.71.66,1,.08.08.13.15.22.22l.12.11.1.08c.15.15.31.25.48.37.66.43,1.45.72,2.27.81,1.62.19,3.35-.44,4.48-1.68.08-.08.14-.15.21-.23l.1-.13.09-.12c.12-.16.23-.33.33-.5.21-.36.39-.72.53-1.11.29-.76.42-1.58.41-2.4-.02-.82-.19-1.63-.5-2.4-.32-.75-.77-1.45-1.34-2.04-.27-.3-.57-.56-.92-.8-.3-.22-.65-.43-1-.61-.7-.36-1.47-.6-2.23-.71-1.55-.23-3.1.06-4.45.65-.68.29-1.31.67-1.9,1.1-.58.43-1.11.91-1.58,1.45Z"/>
          <path class="cls-1" d="M119.18,18.24c.63.81,1.79.96,2.58.33.8-.62.95-1.78.32-2.59-.62-.81-1.78-.96-2.59-.33-.79.62-.94,1.79-.31,2.58Z"/>
        </g>
        <path class="cls-1" d="M136.7,15.62c0-1.35,1.1-2.44,2.45-2.44s2.45,1.09,2.45,2.44-1.1,2.45-2.45,2.45-2.45-1.09-2.45-2.45Z"/>
      </g>
      <path class="cls-1" d="M77.49,4.53c-.18,1.08-.86,2.12-1.32,3.09l-.04.08-.04-.08c-.62-1.3-1.74-2.7-1.45-4.22.21-1.09.98-2.21,1.45-3.21l.07-.18s.13.29.15.31c.72,1.14,1.33,2.62,1.21,3.99,0,.08-.02.15-.03.23Z"/>
      <g>
        <path class="cls-1" d="M77.36,8.62c1.3.55,2.87.34,3.96-.21.44-.21.91-.52,1.24-.87.8-.86,1.68-2.09,2.98-2.27-.26-.04-.5-.16-.75-.24-.36-.11-.73-.18-1.09-.23-1.35-.19-2.76.03-3.78.75-.75.53-1.28,1.23-1.71,2.04-.21.41-.36.89-.85,1.04Z"/>
        <path class="cls-1" d="M74.9,8.62c-1.3.55-2.87.34-3.96-.21-.44-.21-.91-.52-1.24-.87-.8-.86-1.68-2.09-2.98-2.27.26-.04.49-.16.75-.24.35-.11.73-.18,1.09-.23,1.35-.19,2.75.03,3.78.75.75.53,1.28,1.23,1.71,2.04.21.41.36.89.85,1.04Z"/>
      </g>
    </g>
  </g>
</svg>