<?xml version="1.0" encoding="UTF-8"?>
<svg id="logo" data-name="logo_name" xmlns="http://www.w3.org/2000/svg" viewBox="0 0 322.95 153.6">
  <defs>
    <style>
      .cls-1 {
        fill: none;
        stroke: #fff;
        stroke-miterlimit: 10;
      }
    </style>
  </defs>
  <g id="logotext" data-name="logotextname">
    <g>
      <g>
        <path class="cls-1" d="M88.73,20.92c.48,5.52-1.16,12.49-4.84,20.36-4.75,10.09-16.56,24.24-25.04,24.98-5.39.47-7.03-3.89-7.5-9.28-.15-1.71-.18-3.56-.22-5.55-3.76,4.77-16.17,17.31-24.33,18.03-4.01.35-6.02-2.12-6.26-4.95-.92-10.52,16.07-20.82,21.89-30,2.56-4.07,3.98-8.3,3.66-11.91-.42-4.8-3.94-7.94-10.19-7.39-4.87.43-10.81,2.87-16.68,6.96-8.37,5.83-15.94,16.9-15.33,23.87.41,4.67,4.19,6.19,8.06,5.85,5.19-.45,11.38-3.91,14.08-6.4,5.71-5.14,7.23-9.71,8.03-13.49.18-1.01.68-1.32,1.07-1.35s.68.21.72.67c.19,2.17-1.14,8.18-8.8,15.21-3.13,2.86-9.26,6.24-14.91,6.74-6.31.55-10.96-3.35-11.57-10.38C0,36.56,3.27,29.19,10.79,22.77c7.03-5.92,14.87-8.72,21.45-9.3,10.58-.93,15.07,3.45,15.62,9.7,1,11.44-9.57,20.11-16.42,29.66-2.95,4.17-5.44,8.96-5.19,11.85.12,1.38,1.02,2.63,2.8,2.47,5.92-.52,19.38-14.68,22.44-18.39,1.57-12.33,6.38-24.8,12.29-25.32,1.18-.1,2.02.35,2.13,1.67.36,4.14-5.62,15.26-12.8,24.04-.37,2.62-.47,5.21-.28,7.44.4,4.6,2.24,8.22,6.45,7.85,6.57-.58,16.3-11.36,21.14-22.58,3.97-9.16,4.62-19.15,4.15-25.21-.21-2.43-.84-4.3-.91-5.09-.03-.39.02-.53.15-.54.33-.03,1.12.7,1.79,1.5,1.79,2.29,2.83,5.12,3.12,8.41ZM62.52,26.45c-2.5.22-6.58,7.27-8.89,19.59,6.42-8.38,10.08-16.52,9.88-18.88-.03-.33-.11-.52-.32-.63-.21-.11-.47-.09-.67-.07Z"/>
        <path class="cls-1" d="M115.49,47.26c-1.24,1.76-5.73,6.46-9.3,9.56-2.9,2.44-9.16,6.63-14.42,7.09-1.51.13-2.98,0-4.23-.69-2.01-1.02-3.03-2.78-3.22-5.02-.32-3.62,1.65-8.42,5.24-12.85,4.73-5.78,11.32-9.93,15.46-10.3.99-.09,1.86.04,2.49.44,2.59,1.56-3.35,8.71-7.17,11.96-2.96,2.51-6.68,4.63-10.3,5.74-.35,1.29-.51,2.5-.41,3.61.14,1.58.78,2.85,2.1,3.59,1.05.64,2.26.8,3.5.69,3.81-.33,7.91-3.47,9.88-5.17,2.65-2.29,7.07-6.98,8.98-9.46.64-.98,1.29-1.17,1.57-.93.35.23.35.96-.18,1.74ZM94.33,44.67c-1.37,1.71-2.81,4.22-3.71,6.75,2.76-.97,5.48-2.53,8.63-5.13,3.7-3.11,8.33-8.55,7.11-9.57-1.3-1.21-7.47,2.44-12.02,7.94Z"/>
        <path class="cls-1" d="M155.9,5.57c.32,3.68-3.53,11.17-7.37,17.21-2.68,4.21-9.96,14.12-16.34,22.23-2,4.41-3.61,8.73-3.41,11.03.07.85.47,1.55,1.26,1.48,4.08-.36,14.86-12.63,16.17-14.33.17-.28.43-.37.69-.39.33-.03.68.21.72.6.1,1.12-4.94,6.39-8.26,9.33-1.78,1.61-7.15,6.92-11.29,7.28-2.56.22-4.13-1.76-4.29-3.67-.03-.39,0-.86.02-1.26-3.82,4.04-6.31,5.92-8.41,6.1-1.31.12-4.33-.28-4.72-4.75-.22-2.5.64-6.28,4.42-11.58,5.72-8.12,13.34-11.83,17.15-12.17.85-.07,1.46,0,1.87.23,2.66-5.2,5.61-10.89,7.47-14.57,3.05-6.03,7.59-14.71,11.6-15.06.59-.05,1.06.04,1.62.32.63.34,1.02,1.04,1.1,1.96ZM131.84,34.24c-5.65.49-17.65,14.79-16.97,22.62.1,1.12.67,2.33,1.78,2.23,1.91-.17,5.21-4.03,8.07-7.66,1.08-2.74,2.83-5.55,3.84-7.62.9-1.87,2.71-5.34,4.75-9.29-.55-.22-.89-.32-1.48-.27ZM153.19,5.6c-3.16.28-12.31,22.08-15.2,27.7-.62,1.25-1.59,3.05-2.54,4.99,4.17-5.4,8.66-11.56,11.52-15.98,3.38-5.33,7.27-13.09,7.03-15.79-.04-.46-.2-.78-.47-.89-.14-.05-.2-.05-.33-.04Z"/>
        <path class="cls-1" d="M187.59,2.79c.32,3.68-3.53,11.17-7.37,17.21-2.68,4.21-9.96,14.12-16.34,22.23-2,4.41-3.61,8.73-3.41,11.03.07.85.47,1.55,1.26,1.48,4.08-.36,14.86-12.63,16.17-14.33.17-.28.43-.37.69-.39.33-.03.68.21.72.6.1,1.12-4.94,6.39-8.26,9.33-1.78,1.61-7.15,6.92-11.29,7.28-2.56.22-4.13-1.76-4.29-3.67-.03-.39,0-.86.02-1.26-3.82,4.04-6.31,5.92-8.41,6.1-1.31.12-4.33-.28-4.72-4.75-.22-2.5.64-6.28,4.42-11.58,5.72-8.12,13.34-11.83,17.15-12.17.85-.07,1.46,0,1.87.23,2.66-5.2,5.61-10.89,7.47-14.57,3.05-6.03,7.59-14.71,11.6-15.06.59-.05,1.06.04,1.62.32.63.34,1.02,1.04,1.1,1.96ZM163.53,31.46c-5.65.49-17.65,14.79-16.97,22.62.1,1.12.67,2.33,1.78,2.23,1.91-.17,5.21-4.03,8.07-7.66,1.08-2.74,2.83-5.55,3.84-7.62.9-1.87,2.71-5.34,4.75-9.29-.55-.22-.89-.32-1.48-.27ZM184.88,2.83c-3.16.28-12.31,22.08-15.2,27.7-.62,1.25-1.59,3.05-2.54,4.99,4.17-5.4,8.66-11.56,11.52-15.98,3.38-5.33,7.27-13.09,7.03-15.79-.04-.46-.2-.78-.47-.89-.14-.05-.2-.05-.33-.04Z"/>
        <path class="cls-1" d="M188.09,48.66c-2.27,2.05-7.92,7.18-11.51,7.04-3.46-.16-4.17-3.01-3.9-5.16.4-3.02,3.61-8,5.3-10.6,2.45-3.79,7.34-10.05,8.19-10.85.43-.37,2.58-.82,2.12-.05-.8,1.46-3.8,6.49-6.41,11.49-2.67,5.07-4.05,8.17-4.16,10.76-.14,2.13.98,2.17,2.45,1.51,2.36-1,5.68-4.01,7.57-5.83,1.95-1.89,6.33-6.45,7.37-8.13.47-.7,2.22-.39,1.16,1.09-1.35,1.97-5.79,6.53-8.18,8.73ZM192.6,20.64c-.94,2.14-2.57,3.93-3.56,4.02-.99.09-1-1.57,0-3.71.94-2.14,2.57-3.93,3.56-4.02.99-.09,1,1.57,0,3.71Z"/>
        <path class="cls-1" d="M217.48,45.36c-4.42,3.96-8.29,7.42-11.45,7.69-2.31.14-4.85-.9-5.28-3.58-.56-3.33,2.01-6.6,4.69-9.29,5.67-5.6,9.73-10.66,7.89-12.08-1.49-1.13-4.38.65-7.11,2.81-3.09,2.52-6.76,6.02-8.96,9.6,0,0-8.17,14.1-8.69,14.21-.71.26-2.53-.11-2.51-.71.1-1.13,3.06-5.96,8.1-14.16,4.52-7.42,7.19-11.76,7.8-12.34.37-.36,2.92-.65,3.02-.26.03.33-.83,1.86-2.39,4.51,1.71-1.61,6.64-5.88,10.58-5.5,2,.16,2.9,1.34,3.04,2.91.17,1.97-.92,4.65-2.57,6.92-4.03,5.45-7.35,10.65-7.51,13.38,0,.73.45,1.35,1.75,1.04,2.08-.45,4.86-2.74,7.8-5.52,2.7-2.49,5.43-5.38,7.75-8.36,1.07-1.42,2.34-.54,1.39.74-.88,1.34-3.88,4.84-7.32,7.99Z"/>
        <path class="cls-1" d="M245.87,44.27c-3.19,2.93-7.65,5.7-11.72,7.58-2.5,4.72-5.01,9.32-7.76,13.53-6.12,9.61-13.42,12.44-15.97,11.33-.83-.39-1.36-1.21-1.46-2.32-.25-2.83,1.79-7.58,6.03-12.05,5.59-5.79,11.44-8.62,16.02-10.74,1.58-3.91,2.65-6.86,2.64-6.92-2.26,2.91-6.04,6.69-9.14,6.83-2.44.08-4.25-1.62-4.51-4.64-.23-2.63.72-6.16,3.41-10.24,5.2-7.94,13.3-13.09,17.9-13.49.72-.06,1.33.02,1.87.17,1.29.42,1.66,1.51,1.61,2.51.84-1,1.5-1.79,1.75-2.01.43-.37,2.58-.82,2.12-.05-4.65,8.22-8.9,17.14-13.26,25.67,3.54-1.9,7.5-4.37,9.71-6.41,3.5-3.15,7.41-7.67,8.71-9.44.17-.28.77-.33,1.11-.16.34.1.5.42.21.91-1.26,2.3-5.34,6.36-9.27,9.95ZM217.27,62.6c-3.22,3.33-5.48,7.77-5.26,10.26.07.79.46,1.42,1.08,1.69,1.79.77,7.23-2.95,11.48-9.62,1.98-3.15,3.99-7.44,5.64-11.29-3.88,1.86-8.86,4.75-12.93,8.95ZM243.32,26.47c-.07-.79-.4-1.49-1.15-1.75-2.06-.81-7.47,2.51-12.02,8.74-4.39,5.88-6.19,11.07-5.94,13.84.09,1.05.49,1.81,1.18,2.08,2.2.93,8.05-6.47,10.65-10.74,2.26-3.64,4.14-6.39,6.69-9.86.41-.57.67-1.45.59-2.3Z"/>
      </g>
      <g>
        <path class="cls-1" d="M103.67,98.92c.82,9.4-5.25,27.09-18.07,39.54-4.88,4.8-10.08,8.17-15.05,10.46.5,1.15.98,2.17,1.39,3.06.24.51.07.85-.24,1.01-.44.24-1.12.1-1.37-.48-.41-.96-.9-1.91-1.32-2.93-2.62,1.09-7.53,2.51-12.4,2.94-5.33.47-10.62-.26-12.8-3.92-.55-1.01-.91-2.04-1-3.16-.28-3.16,1.22-6.47,2.72-8.25,2.11-2.37,4.27-2.69,5.22-1.65,1.25,1.41.01,3.91-1.69,3.46-.74-.13-1.4-.08-1.97.24-.57.25-1.13.76-1.59,1.46-.52.84-1.16,2.68-1,4.46.1,1.12.52,2.21,1.33,3.13,1.32,1.47,3.42,1.95,6.11,1.72,4.21-.37,9.65-2.5,15.17-5.37-.65-2.13-1.14-4.74-1.37-8.09-.39-8.25.66-17.41,6.99-27.57,6.1-9.81,15.79-16.35,22.89-16.97,2.04-.18,3.85.13,5.32.99,1.54.93,2.45,3.03,2.7,5.92ZM95.5,93.4c-6.44.56-15.85,7.41-21.67,16.6-3.83,6.17-6.71,15.69-6.34,25.99,0,.66.05,1.32.11,1.98.18,2.1.62,4.05,1.1,5.8,6.32-3.53,12.71-8.4,17.73-13.87,9.61-10.51,15.9-24.25,15.27-31.48-.18-2.04-.9-3.5-2.23-4.31-1.11-.63-2.46-.84-3.97-.71Z"/>
        <path class="cls-1" d="M123.02,137.5c-4.42,3.96-8.29,7.42-11.45,7.69-2.31.14-4.85-.9-5.28-3.58-.56-3.33,2.01-6.6,4.69-9.29,5.67-5.6,9.73-10.66,7.89-12.08-1.49-1.13-4.38.65-7.11,2.81-3.09,2.52-6.76,6.02-8.97,9.6,0,0-8.17,14.1-8.69,14.21-.71.26-2.53-.11-2.51-.71.1-1.13,3.06-5.96,8.1-14.16,4.52-7.42,7.19-11.76,7.8-12.34.37-.36,2.92-.65,3.02-.26.03.33-.83,1.86-2.39,4.51,1.71-1.61,6.64-5.88,10.58-5.5,2,.16,2.9,1.34,3.04,2.91.17,1.97-.92,4.65-2.57,6.92-4.03,5.45-7.35,10.65-7.51,13.38,0,.73.45,1.35,1.75,1.04,2.08-.45,4.86-2.74,7.8-5.52,2.7-2.49,5.43-5.38,7.75-8.36,1.07-1.42,2.34-.54,1.39.74-.88,1.34-3.88,4.84-7.32,7.99Z"/>
        <path class="cls-1" d="M162.23,126.79c-.71.99-3.17,3.92-5.62,6.19-1.79,1.55-4.01,3.33-6.64,3.56-.99.09-2-.09-3.02-.46-.89-.39-1.67-.91-2.2-1.66-5.68,6.26-11.39,9.08-14.1,9.18-2.64.1-4.41-1.14-5.14-3.46-.92-2.9,1.09-7.18,2.73-10.44,2.5-4.79,8.41-12.2,9.09-12.72.31-.23,1.48-.53,1.8.17.08.19-5.19,9.6-8.01,17.53-.37,1.03-.65,2.44-.54,3.69s.6,2.33,1.74,2.5c2.75.42,7.44-3.5,11.48-8.09-.27-.77-.47-1.55-.55-2.47-.2-2.3.24-4.86,1.11-7.05,2.52-5.98,7.48-9.13,9.73-8.4,2.38.72-1.09,8.77-6.48,16.07-.53.71-1.07,1.35-1.55,1.99.39.69.96,1.17,1.72,1.51.83.39,1.69.45,2.48.38,2.56-.22,4.7-2.27,6.28-3.93,1.4-1.45,3.33-3.6,4.46-5.09.35-.56.88-.54,1.17-.23.29.31.33.77.04,1.25ZM146.15,124.02c-.83,1.93-1.31,4.75-.84,7.03.42-.5.77-1,1.13-1.42,3.73-5.03,6.63-11.25,5.5-12.07-.85-.59-3.31.75-5.79,6.47Z"/>
        <path class="cls-1" d="M171.27,134.01c-2.27,2.05-7.92,7.18-11.51,7.04-3.46-.16-4.17-3.01-3.9-5.16.4-3.02,3.61-8,5.3-10.6,2.45-3.79,7.34-10.05,8.19-10.85.43-.37,2.58-.82,2.12-.05-.8,1.46-3.8,6.49-6.41,11.49-2.67,5.07-4.05,8.17-4.16,10.76-.14,2.13.98,2.17,2.45,1.51,2.36-1,5.68-4.01,7.57-5.83,1.95-1.89,6.32-6.45,7.37-8.13.47-.7,2.22-.39,1.16,1.09-1.35,1.97-5.79,6.53-8.18,8.73ZM175.78,105.99c-.94,2.14-2.57,3.93-3.56,4.02-.99.09-1-1.57,0-3.71.94-2.14,2.57-3.93,3.56-4.02.99-.09,1,1.57,0,3.71Z"/>
        <path class="cls-1" d="M190.07,109.58l4.8-.42c.59-.05.87.06.95.31.18.51-.61,1.38-1.79,1.48l-5,.44c-.97,1.74-2,3.69-3.14,5.77-4.68,8.62-7.43,14.23-7.7,17.96-.21,2.14,1.31,2.14,2.45,1.51,2.29-1.13,5.68-4.01,7.57-5.83,1.95-1.89,6.32-6.52,7.37-8.13.29-.42,1.02-.49,1.38-.19.22.25.26.71-.22,1.28-1.35,1.97-5.79,6.53-8.18,8.73-2.28,1.99-7.92,7.18-11.51,7.04-3.46-.16-4.27-2.61-3.9-5.16.75-5.03,3.61-9.46,8.84-17.8.99-1.54,1.97-3.22,3.02-4.84l-4.6.4c-.59.05-.87-.12-.9-.39-.11-.52.68-1.32,1.8-1.42l4.86-.43c4.14-6.39,8.02-12.03,9.19-13.06.31-.29,1.47-.59,1.95-.44.2.05.28.17.17.38-1.51,2.38-3.83,6.17-7.43,12.77Z"/>
        <path class="cls-1" d="M220.32,129.72c-2.15,1.91-7.43,6.68-10.98,7.05-2.83.25-4.31-1.61-4.49-3.65-.05-.59.02-1.26.16-1.94-2.48,3.4-5.47,6.37-8.63,6.65-2.43.21-4.26-1.75-4.51-4.64-.23-2.63.72-6.16,3.41-10.24,5.2-7.94,13.3-13.09,17.9-13.49,2.43-.21,3.33.97,3.44,2.22.02.2.03.33.04.46,1.86-2.22,1.78-2.34,3.23-2.47.39-.03.66,0,.68.21.05.53-3.79,6.63-6.46,11.69-2.9,5.49-4.4,8.8-4.17,11.43.09.99.58,1.27,1.23,1.22,2.24-.2,6.54-4.02,8.8-6.2,1.95-1.89,6.33-6.45,7.37-8.13.18-.21.44-.3.7-.33.39-.03.74.13.77.53.02.2-.09.54-.32.89-1.35,1.97-5.78,6.6-8.18,8.73ZM215.2,112.81c-.09-1.05-.7-1.99-2.15-1.87-2.5.22-7.05,3.47-11.02,8.85-4.32,5.88-6.25,11.08-5.94,13.84.11,1.31.73,2.26,1.71,2.17,2.56-.22,7.68-6.83,10.12-10.82,2.27-3.64,4.15-6.39,6.69-9.86.41-.57.66-1.52.59-2.3Z"/>
        <path class="cls-1" d="M239.12,105.29l4.8-.42c.59-.05.87.06.95.31.18.51-.61,1.38-1.79,1.48l-5,.44c-.97,1.74-2,3.69-3.14,5.77-4.68,8.62-7.43,14.23-7.7,17.96-.21,2.14,1.31,2.14,2.45,1.51,2.29-1.13,5.68-4.01,7.57-5.83,1.95-1.89,6.32-6.52,7.37-8.13.29-.42,1.02-.49,1.38-.19.22.25.26.71-.22,1.28-1.35,1.97-5.79,6.53-8.18,8.73-2.28,1.99-7.92,7.18-11.51,7.04-3.46-.16-4.27-2.61-3.9-5.16.75-5.03,3.61-9.46,8.84-17.8.99-1.54,1.97-3.22,3.02-4.84l-4.6.4c-.59.05-.87-.12-.9-.39-.11-.52.68-1.32,1.8-1.42l4.86-.43c4.15-6.39,8.02-12.03,9.19-13.06.31-.29,1.47-.59,1.95-.44.2.05.28.17.17.38-1.51,2.38-3.83,6.16-7.43,12.77Z"/>
        <path class="cls-1" d="M254.9,126.69c-2.27,2.05-7.92,7.18-11.51,7.04-3.46-.16-4.17-3.01-3.9-5.16.4-3.02,3.61-8,5.3-10.6,2.45-3.79,7.34-10.05,8.19-10.85.43-.37,2.58-.82,2.12-.05-.8,1.46-3.8,6.49-6.41,11.49-2.67,5.07-4.05,8.17-4.16,10.76-.14,2.13.98,2.17,2.45,1.51,2.36-1,5.68-4.01,7.57-5.83,1.95-1.89,6.33-6.45,7.37-8.13.47-.7,2.22-.39,1.15,1.09-1.35,1.97-5.79,6.53-8.18,8.73ZM259.41,98.67c-.94,2.14-2.57,3.93-3.56,4.02-.99.09-1-1.57,0-3.71.94-2.14,2.57-3.93,3.56-4.02.99-.09,1,1.57,0,3.71Z"/>
        <path class="cls-1" d="M284.81,123.28c-1.22.44-2.39.74-3.44.83-1.58.14-2.86-.15-3.97-.71-4.51,5.23-10.26,9.18-14.6,9.56-3.22.28-5.03-1.42-5.28-4.31-.21-2.43.63-5.69,2.7-9.31,4.47-8.01,12.87-14.97,18.78-15.49,3.16-.28,4.96,1.42,5.21,4.31.21,2.43-.63,5.62-2.7,9.31-.8,1.46-1.8,2.94-2.87,4.36.9.45,1.72.71,2.9.61.79-.07,1.7-.28,2.85-.78,3.14-1.27,6.96-6.04,7.84-7.31.82-1.2,2.1-.25,1.45.67-.71.99-4.77,6.78-8.88,8.26ZM282.11,108.35c-.16-1.84-1.18-2.88-3.02-2.72-3.88.34-10.07,6.05-13.79,12.73-2,3.62-2.86,6.74-2.67,8.85.16,1.84,1.11,2.88,2.95,2.72,2.83-.25,6.74-3.24,10.15-7.38-.7-.47-1.21-.95-1.51-1.39-.99-1.44-.75-3.25.54-4.42.98-.95,2.26-1.39,3.38-1.49.85-.07,1.66.05,2.08.35,1.4-2.9,2.04-5.48,1.88-7.25Z"/>
        <path class="cls-1" d="M314.8,120.72c-4.42,3.96-8.29,7.42-11.45,7.69-2.31.14-4.85-.9-5.28-3.58-.56-3.33,2.01-6.6,4.69-9.29,5.67-5.6,9.73-10.66,7.89-12.08-1.49-1.13-4.38.65-7.11,2.81-3.09,2.52-6.76,6.02-8.96,9.6,0,0-8.17,14.1-8.69,14.21-.71.26-2.53-.11-2.51-.71.1-1.13,3.06-5.96,8.1-14.16,4.52-7.42,7.19-11.76,7.8-12.34.37-.36,2.92-.65,3.02-.26.03.33-.83,1.86-2.39,4.51,1.71-1.61,6.64-5.88,10.58-5.5,2,.16,2.9,1.34,3.04,2.91.17,1.97-.92,4.65-2.58,6.92-4.03,5.45-7.35,10.65-7.51,13.38,0,.73.45,1.35,1.75,1.04,2.08-.45,4.86-2.74,7.8-5.52,2.7-2.49,5.43-5.38,7.75-8.36,1.07-1.42,2.34-.54,1.39.74-.88,1.34-3.88,4.84-7.32,7.99Z"/>
      </g>
    </g>
  </g>
</svg>